<?xml version="1.0" encoding="UTF-8"?>
<!DOCTYPE svg PUBLIC "-//W3C//DTD SVG 1.1//EN" "http://www.w3.org/Graphics/SVG/1.1/DTD/svg11.dtd">
<!-- Creator: CorelDRAW 2020 (64-Bit) -->
<svg xmlns="http://www.w3.org/2000/svg" xml:space="preserve" width="1.42526in" height="0.757071in" version="1.1" style="shape-rendering:geometricPrecision; text-rendering:geometricPrecision; image-rendering:optimizeQuality; fill-rule:evenodd; clip-rule:evenodd"
viewBox="0 0 15750.87 8366.56"
 xmlns:xlink="http://www.w3.org/1999/xlink"
 xmlns:xodm="http://www.corel.com/coreldraw/odm/2003">
 <defs>
  <style type="text/css">
   <![CDATA[
    .str0 {stroke:#2B2A29;stroke-width:76.75;stroke-miterlimit:2.61313}
    .fil4 {fill:#FEFEFE}
    .fil3 {fill:#2B2A29}
    .fil1 {fill:#191919}
    .fil0 {fill:#FBFBFB}
    .fil2 {fill:#FCFCFC}
   ]]>
  </style>
 </defs>
 <g id="Layer_x0020_1">
  <metadata id="CorelCorpID_0Corel-Layer"/>
  <g id="_2139056326224">
   <path class="fil0" d="M6883.69 2059.18c2900.82,-1414.9 4459.47,3062.45 1829.76,4183.54 -2621.58,1117.65 -4789.57,-2739.88 -1829.76,-4183.54zm341.02 -1489.26c-1818.36,315 -3449.46,2154.9 -2972.65,4358.58 1005.62,4647.43 8126,3432.49 7252.56,-1446.1 -322.92,-1803.92 -2162.04,-3279.34 -4279.91,-2912.48z"/>
   <path class="fil1" d="M7224.72 569.92c2117.88,-366.87 3956.99,1108.56 4279.91,2912.48 873.44,4878.59 -6246.94,6093.53 -7252.56,1446.1 -476.81,-2203.68 1154.29,-4043.57 2972.65,-4358.58zm2770.46 7164.5c507.18,-573.88 861.6,-617.3 1355.17,-1472.03 1866.44,-3232 -1226.82,-5452.6 -1353.17,-5622.11 2266.37,332.8 4511.64,2211.68 5349.58,3550.45 -795.47,1332.33 -3128.24,3266.12 -5351.58,3543.7zm-9599.55 -3543.7c639.62,-1211.94 3251.06,-3269.12 5369.76,-3550.45 -814.61,953.19 -1921.26,1587.63 -1929.09,3552.49 -7.4,1864.05 1116.26,2661.78 1929.79,3540.31 -2083.76,-231.25 -4734.75,-2313.62 -5370.46,-3542.35zm-395.63 0c530.11,1103.16 2004.62,2258.97 3113.79,2936.93 4730.32,2891.29 11198.11,228.12 12637.07,-2936.93 -1079.71,-2312.4 -4850.27,-4185.37 -7859.51,-4190.68 -3105.66,-5.48 -6737.9,1866.7 -7891.36,4190.68z"/>
   <path class="fil2" d="M395.63 4190.72c635.71,1228.73 3286.69,3311.1 5370.46,3542.35 -813.53,-878.53 -1937.18,-1676.26 -1929.79,-3540.31 7.83,-1964.86 1114.48,-2599.3 1929.09,-3552.49 -2118.7,281.33 -4730.14,2338.51 -5369.76,3550.45z"/>
   <path class="fil2" d="M9995.18 7734.42c2223.34,-277.59 4556.11,-2211.38 5351.58,-3543.7 -837.94,-1338.76 -3083.2,-3217.65 -5349.58,-3550.45 126.35,169.51 3219.6,2390.11 1353.17,5622.11 -493.56,854.73 -847.99,898.15 -1355.17,1472.03z"/>
   <circle class="fil3" cx="7758.61" cy="4114.32" r="2299.39"/>
   <circle class="fil4 str0" cx="8564.13" cy="3343.65" r="759.62"/>
  </g>
 </g>
</svg>
